<svg width="26" height="27" viewBox="0 0 26 27" fill="none" xmlns="http://www.w3.org/2000/svg">
<path d="M24.1479 16.496C21.1205 15.5936 14.0685 14.3663 9.08219 14.3663C8.47671 14.3663 8.19178 14.7273 8.19178 15.2687C8.19178 15.7019 8.58356 16.2072 9.22466 16.3877C11.8603 17.1457 14.8877 18.3008 14.8877 20.3944C14.8877 22.3436 13.5699 23.8235 11.3616 23.8235C10.6137 23.8235 10.1863 23.3904 10.0082 22.7406C9.15342 19.8529 7.08767 16.135 4.27397 14.7273C3.59726 14.3302 3.38356 13.8971 3.38356 13.3917C3.38356 12.8864 3.59726 12.4171 4.27397 12.0561C7.08767 10.6484 9.15342 6.93048 10.0082 4.04278C10.1863 3.35695 10.6137 2.95989 11.3616 2.95989C13.5342 2.95989 14.8877 4.43984 14.8877 6.38904C14.8877 8.51872 11.8603 9.6377 9.22466 10.3957C8.54795 10.5762 8.19178 11.0815 8.19178 11.5147C8.19178 12.0561 8.47671 12.4171 9.08219 12.4171C13.8548 12.4171 20.8356 11.2259 24.1123 10.4679C25.5726 10.143 26 9.70989 26 8.95187C26 3.60963 20.9068 0 13.2493 0C3.49041 0 0 5.45053 0 13.6083C0 22.3436 3.49041 27 13.2493 27C21.2274 27 25.9288 23.4626 25.9288 18.2647C25.9288 17.3623 25.5726 16.9291 24.1479 16.496Z" fill="#E37F3D"/>
</svg>
