<svg width="26" height="27" viewBox="0 0 26 27" fill="none" xmlns="http://www.w3.org/2000/svg">
<path d="M1.85205 16.496C4.87945 15.5936 11.9315 14.3663 16.9178 14.3663C17.5233 14.3663 17.8082 14.7273 17.8082 15.2687C17.8082 15.7019 17.4164 16.2072 16.7753 16.3877C14.1397 17.1457 11.1123 18.3008 11.1123 20.3944C11.1123 22.3436 12.4301 23.8235 14.6384 23.8235C15.3863 23.8235 15.8137 23.3904 15.9918 22.7406C16.8466 19.8529 18.9123 16.135 21.726 14.7273C22.4027 14.3302 22.6164 13.8971 22.6164 13.3917C22.6164 12.8864 22.4027 12.4171 21.726 12.0561C18.9123 10.6484 16.8466 6.93048 15.9918 4.04278C15.8137 3.35695 15.3863 2.95989 14.6384 2.95989C12.4658 2.95989 11.1123 4.43984 11.1123 6.38904C11.1123 8.51872 14.1397 9.6377 16.7753 10.3957C17.4521 10.5762 17.8082 11.0815 17.8082 11.5147C17.8082 12.0561 17.5233 12.4171 16.9178 12.4171C12.1452 12.4171 5.16438 11.2259 1.88767 10.4679C0.427397 10.143 0 9.70989 0 8.95187C0 3.60963 5.09315 0 12.7507 0C22.5096 0 26 5.45053 26 13.6083C26 22.3436 22.5096 27 12.7507 27C4.7726 27 0.0712329 23.4626 0.0712329 18.2647C0.0712329 17.3623 0.427397 16.9291 1.85205 16.496Z" fill="#E37F3D"/>
</svg>
