<?xml version="1.0" encoding="utf-8"?>
<!-- Generator: Adobe Illustrator 24.2.1, SVG Export Plug-In . SVG Version: 6.00 Build 0)  -->
<svg version="1.1" id="Layer_1" xmlns="http://www.w3.org/2000/svg" xmlns:xlink="http://www.w3.org/1999/xlink" x="0px" y="0px"
	 viewBox="0 0 237.6 237.6" style="enable-background:new 0 0 237.6 237.6;" xml:space="preserve">
<style type="text/css">
	.st0{fill:#323539;}
</style>
<g>
	<path class="st0" d="M18.9,73.1l2.8,1.3L21,76l-7.9-3.7l2.6-5.5l1.4,0.7c-0.6,1.3-1.3,2.6-2,3.9l2.8,1.3l1.6-3.5l1.3,0.6
		C20.3,70.8,19.6,72,18.9,73.1z"/>
	<path class="st0" d="M24.4,68.9l-7.7-4.1l0.8-1.5l7.7,4.1L24.4,68.9z"/>
	<path class="st0" d="M24.3,60.5c-1,0-2.4-0.3-3.4-0.4l-0.1,0.1c1,0.5,2.4,1.3,3.3,1.9l3.1,1.9l-0.8,1.3L19,60.6l1.2-2l4.3,0.1
		c1.3,0.1,2.7,0.3,3.7,0.5l0.1-0.1c-0.9-0.5-2.2-1.1-3-1.7l-3.1-2l0.8-1.3l7.4,4.7l-1.2,1.8L24.3,60.5z"/>
	<path class="st0" d="M33.9,51.7c-0.4-0.5-1-0.9-1.4-1.2c-0.3,0.6-0.6,1.2-1,1.6l-1.1-0.8l2.1-2.8c0.3,0.2,0.6,0.4,1,0.7
		c1.8,1.4,1.8,3.1,0.4,5c-1.6,2-3.3,2.7-5.8,0.8c-2.5-1.9-3.1-4-1.3-6.4c1.4-1.8,2.9-2.3,4.6-0.8l-1,1.4c-1-0.8-1.6-0.7-2.5,0.5
		c-0.4,0.5-0.7,1.1-1,1.7c0.6,0.9,1.3,1.6,2.1,2.1c1.6,1.2,2.8,1.3,4-0.2C33.4,52.8,33.7,52.3,33.9,51.7z"/>
	<path class="st0" d="M30.9,43.9l4.2-4.6l1.1,1c-1,1.1-2,2.2-3.1,3.2l2,1.8l2.7-3l1,0.9c-0.9,1-1.8,2-2.8,2.9l1.6,1.5l3-3.3l1.1,1
		l-4.2,4.6L30.9,43.9z"/>
	<path class="st0" d="M42.4,40.2l2,2.1l-1.3,1.2l-6-6.4l2.6-2.4c1.7-1.6,3.1-1.6,4.3-0.4c0.9,0.9,1.2,2.1,0.7,3.3l3.8,0.6l0.1,0.1
		L47,39.8l-3.2-0.8c-0.1,0.1-0.1,0.1-0.2,0.2C43.3,39.5,42.8,39.9,42.4,40.2z M43.7,37.3c-0.1-0.6-0.4-1.1-0.8-1.5
		c-0.8-0.8-1.4-0.8-2.6,0.4c-0.3,0.3-0.6,0.6-0.8,0.9l2.2,2.3c0.4-0.3,0.8-0.7,1.2-1.1C43,38,43.3,37.7,43.7,37.3z"/>
	<path class="st0" d="M47.6,35.7l1.4-1.1c0.7,0.9,1.3,0.8,2.4-0.1c0.5-0.4,0.8-0.8,1.1-1.2c-0.1-0.2-0.2-0.4-0.3-0.5
		c-0.5-0.6-1.1-0.6-2.6,0.1c-2.2,1-3.2,1-4.2-0.2c-1-1.2-0.7-2.7,1.1-4.2c1.8-1.5,3.1-1.4,4.2,0.2l-1.4,1.1
		c-0.7-0.9-1.2-0.9-2.1-0.1c-0.5,0.4-0.9,0.8-1.1,1.2c0.1,0.2,0.2,0.4,0.4,0.5c0.5,0.6,1,0.7,2.6,0c2.6-1.2,3.4-0.8,4.2,0.2
		c1,1.3,0.7,2.6-1.2,4.1C50.1,37.3,48.8,37.3,47.6,35.7z"/>
	<path class="st0" d="M50.6,25.5l5.7-3.9l0.9,1.3c-0.7,0.5-1.5,0.9-2.2,1.4l4.2,6.1l-1.4,1l-4.1-5.9l-2.2,1.5L50.6,25.5z"/>
	<path class="st0" d="M64.2,27.1l-1.3-2.3l-5.8-3.7l1.7-1l4,3.1l0.2-0.1l-0.7-5l1.7-1l0.4,6.9l1.3,2.3L64.2,27.1z"/>
	<path class="st0" d="M65.5,16.3l1.6-0.8l3.2,6.5l3.4-1.7l0.7,1.3l-5,2.5L65.5,16.3z"/>
	<path class="st0" d="M72.7,12.9l5.8-2.3l0.5,1.3c-1.4,0.6-2.8,1.1-4.2,1.6l1,2.5l3.7-1.5l0.5,1.2c-1.2,0.5-2.5,1-3.8,1.3l0.8,2
		l4.1-1.7l0.5,1.3L76,21L72.7,12.9z"/>
</g>
</svg>
