<?xml version="1.0" encoding="utf-8"?>
<!-- Generator: Adobe Illustrator 24.2.1, SVG Export Plug-In . SVG Version: 6.00 Build 0)  -->
<svg version="1.1" id="Layer_1" xmlns="http://www.w3.org/2000/svg" xmlns:xlink="http://www.w3.org/1999/xlink" x="0px" y="0px"
	 viewBox="0 0 642.3 640.7" style="enable-background:new 0 0 642.3 640.7;" xml:space="preserve">
<g>
	<path d="M611.5,283.2l-0.4-2.1l2.6-0.5c2.7-0.5,3.6-2.1,2.8-6.7l-0.2-1.2l-8.9,1.6c-3,0.5-3.1,0.6-2.2,5.4l-10.7,2l-4.3-23.2
		l10.7-2c0.9,4.8,1,4.7,4,4.2l8.9-1.6l-0.2-1.1c-0.8-4.6-2.3-5.8-5-5.3l-2.6,0.5l-0.4-2.1l17.2-3.2l5.9,31.9L611.5,283.2z"/>
	<path d="M612.9,313l-0.4-9.1l-2,0.1c-3,0.1-3.2,0.1-3.1,3.2l-10.9,0.4l-0.8-18.9l10.9-0.4c0.1,3.7,0.3,3.7,3.3,3.6l5.9-0.2
		c3-0.1,3.2-0.2,3-3.8l10.8-0.4l0.8,18.9l-10.8,0.4c-0.1-3.1-0.3-3.1-3.3-2.9l-1.7,0.1l0.4,9.1l1.7-0.1c3-0.1,3.2-0.1,3.1-3.2
		l10.8-0.4l0.8,18.9l-10.8,0.4c-0.1-3.7-0.3-3.8-3.3-3.6l-5.9,0.2c-3,0.1-3.2,0.2-3,3.9l-10.9,0.4l-0.8-18.9l10.9-0.4
		c0.1,3.1,0.3,3.1,3.3,2.9L612.9,313z"/>
	<path d="M597,332.8l10.8,1.1c-0.4,3.7-0.2,3.7,2.8,4l5.8,0.6c3,0.3,3.2,0.3,3.5-3.4l10.8,1.1l-3.2,31.4l-15.3-1.6l0.2-1.8
		c3.5-1.8,4.8-4.5,6-13.4l-4.9-0.5c0.1,3.6,0.4,5.7,1.2,7.5l-0.1,1.4l-5.8-0.6l0.1-1.4c1.1-1.5,1.9-3.5,2.7-7.1l-5.4-0.5
		c-0.4,9.2,0.5,12.1,3.5,14.6l-0.2,1.8l-15.8-1.6L597,332.8z"/>
	<path d="M607,408.1c1.5-5.4,1.5-6.1-1.4-6.9l-8.7-2.4l-0.2,0.7c-2.1,7.6-1.3,9.6,3.8,11c0.5,0.1,1,0.3,1.6,0.4l-0.5,1.9l-18.4-5
		L591,379l10.5,2.9c-1,3.6-0.8,3.6,2.1,4.4l5.7,1.5c2.9,0.8,3.1,0.8,4-2.7l10.4,2.9l-6.3,23L607,408.1z"/>
	<path d="M574.5,427.7c5.4-12.8,13.1-15.2,23.8-10.7c10.9,4.6,14.1,11.6,8.6,24.4c-5.5,12.9-13,15.4-23.6,10.9
		C572.9,447.9,569,440.5,574.5,427.7z M596.9,437.2c1.4-3.3,0.4-5.4-4-7.3c-4.5-1.9-7.1-1.3-8.4,2c-1.4,3.4,0,5.6,4.4,7.5
		C593.2,441.2,595.5,440.5,596.9,437.2z"/>
	<path d="M560.6,474.2l0.5-0.8l-5.8-7.5l7.1-11.1l20.8,5.4c2.2,0.6,3,0.1,3.6-0.6l9.1,5.9l-9.7,15.1l-9.1-5.9c1.2-2,0.9-3.3-0.2-4
		c-1.1-0.7-2.2-0.5-3.6,0l-10,3.4v0.9l8.9,2.3c2.2,0.5,3,0,3.6-0.6l9.1,5.9l-9.8,15.3L566,492c1.2-2,0.8-3.3-0.2-4
		c-0.9-0.6-1.9-0.7-3.3-0.5l-10.4,1.8c2.4,2.6,4,4.4,5.6,5.4c2.4,1.5,4.6,1.1,7.1-0.8l9.1,5.9l-6.4,10l-9.1-5.9
		c0.3-1.6-0.5-3.5-3.7-7.6L544.4,483l7.2-11.1L560.6,474.2z"/>
	<path d="M537.3,492.5l8,7.3c-2.5,2.7-2.4,2.9-0.2,4.9l4.3,4c2.2,2,2.3,2.1,4.9-0.6l8,7.3l-12.7,13.9c-9.5,10.4-16.9,9.6-25,2.2
		c-8.5-7.7-9.8-14.5-0.8-24.2L537.3,492.5z M543.6,519.6l-8.9-8.1l-2.2,2.4c-1.8,2-3.1,4.5,0.8,8c3.7,3.3,5.2,3.2,7.8,0.4
		L543.6,519.6z"/>
	<path d="M495.3,533.3c10.8-8.8,18.7-7.4,26,1.6c7.5,9.1,7,16.8-3.7,25.6c-10.8,8.9-18.7,7.6-26-1.3
		C484.4,550.4,484.4,542.1,495.3,533.3z M510.7,552.1c2.8-2.2,2.8-4.6-0.2-8.3c-3.1-3.8-5.6-4.4-8.4-2.2c-2.8,2.3-2.6,4.9,0.4,8.7
		C505.5,554,507.8,554.4,510.7,552.1z"/>
	<path d="M461.3,568.1l0.8-0.5l-1.6-9.3l11.5-6.5l15.9,14.4c1.7,1.5,2.6,1.5,3.5,1.1l5.3,9.4l-15.6,8.9l-5.3-9.4
		c2-1.2,2.3-2.6,1.7-3.7c-0.7-1.2-1.7-1.5-3.2-1.6l-10.4-1.6l-0.4,0.8l6.8,6.1c1.7,1.5,2.7,1.5,3.5,1.1l5.3,9.4l-15.8,9l-5.3-9.4
		c2-1.2,2.3-2.5,1.6-3.7c-0.5-0.9-1.4-1.5-2.7-1.9l-10.1-3.2c0.9,3.4,1.5,5.7,2.4,7.3c1.4,2.5,3.5,3.1,6.6,2.6l5.3,9.4l-10.3,5.8
		l-5.3-9.4c1-1.3,1.2-3.4,0.2-8.4l-3-16.6l11.5-6.5L461.3,568.1z"/>
	<path d="M419.1,578.2l13.2-4.7l3.7,10.2c-2.2,1.1-2.3,3.9-0.8,8l0.6,1.7c1,2.8,1,3,4.3,1.8l3.7,10.2l-19.9,7.2l-3.2-8.9
		c-1-2.7-1.6-3.6-5.1-4.8l-10-3.3h-0.1l0.1,0.4c1.7,4.5,6.6,8.2,11.6,7.5l3.7,10.2l-12.9,4.7l-3.6-10.1c1.9-1.2,2.4-2.9,0.8-7.3
		l-5.6-15.5l16.6-6l3.5,9.7c0.9,2.5,2.1,3.4,4.9,4.4l10.1,3.1c-1.8-4.2-5.1-7.7-11.9-8L419.1,578.2z"/>
	<path d="M364.2,592c13.7-2.1,19.8,3.1,21.6,14.5c1.8,11.6-2.5,18.1-16.2,20.2c-13.8,2.2-20-2.9-21.8-14.3
		C346.1,601.3,350.3,594.2,364.2,592z M367.9,616.1c3.5-0.5,4.8-2.5,4-7.3s-2.6-6.7-6.1-6.1c-3.6,0.6-4.8,2.9-4,7.7
		C362.5,615.1,364.3,616.6,367.9,616.1z"/>
	<path d="M328.4,595.9l14-0.2l0.2,10.9c-2.5,0.4-3.4,3-3.3,7.3v1.8c0,3,0,3.1,3.5,3.1l0.2,10.8l-21.1,0.3l-0.2-9.5
		c0-2.9-0.3-3.9-3.3-6.2l-8.4-6.3h-0.1v0.4c0.1,4.8,3.6,9.9,8.6,10.8l0.2,10.8l-13.7,0.2l-0.2-10.8c2.2-0.5,3.2-2,3.1-6.7l-0.3-16.5
		l17.7-0.3l0.2,10.3c0,2.7,0.9,3.9,3.2,5.7l8.5,6.2c-0.3-4.6-2.4-9-8.6-11.4L328.4,595.9z"/>
	<path d="M256.1,605.7l2.1,0.4l-0.4,2.7c-0.5,2.7,0.7,4.1,5.3,4.9l1.2,0.2l1.5-8.9c0.5-3,0.5-3.1-4.4-4l1.8-10.7l23.3,3.9l-1.8,10.7
		c-4.8-0.8-4.8-0.6-5.3,2.3l-1.5,8.9l1.1,0.2c4.6,0.8,6.2-0.2,6.7-2.9l0.4-2.7l2.1,0.4l-2.9,17.2l-32-5.4L256.1,605.7z"/>
	<path d="M227.5,596.8l8.7,2.8l0.6-1.9c0.9-2.9,1-3-1.9-4l3.3-10.4l18,5.8l-3.3,10.4c-3.5-1.1-3.6-1-4.5,1.9l-1.8,5.6
		c-0.9,2.9-0.9,3,2.6,4.2l-3.3,10.3l-18-5.8l3.3-10.3c2.9,0.9,3,0.8,3.9-2.1l0.5-1.6l-8.7-2.8l-0.5,1.6c-0.9,2.9-1,3,2,4l-3.3,10.3
		l-18-5.8l3.3-10.3c3.5,1.1,3.6,1,4.6-1.9l1.8-5.6c0.9-2.9,0.9-3-2.6-4.2l3.3-10.4l18,5.8l-3.3,10.4c-2.9-0.9-3-0.8-3.9,2.1
		L227.5,596.8z"/>
	<path d="M214.4,575.1l-4.8,9.8c-3.3-1.6-3.4-1.5-4.7,1.2l-2.6,5.3c-1.3,2.7-1.4,2.9,1.9,4.5l-4.8,9.7l-28.3-13.9l6.8-13.8l1.6,0.8
		c0.5,3.9,2.6,6.1,10.5,10.2l2.2-4.4c-3.4-1.2-5.5-1.6-7.5-1.5l-1.3-0.6l2.6-5.2l1.3,0.6c1,1.6,2.6,3,5.8,5l2.4-4.8
		c-8.5-3.6-11.5-3.7-14.9-1.7l-1.6-0.8l7-14.3L214.4,575.1z"/>
	<path d="M173.1,553.6l-6.4,8.8c-3-2.2-3.1-2.1-4.9,0.4l-3.5,4.7c-1.8,2.4-1.9,2.6,1.1,4.8L153,581l-16.9-12.4
		c-9.3-6.8-11-10.6-7.1-15.9c4-5.5,7.5-3.8,13.1,0.2l0.9-1.2c-5.9-4.4-8.7-7.2-4.8-12.6c4-5.4,8.3-4.9,17.6,1.9L173.1,553.6z
		 M146.7,562.9l3.1-4.2l-4-3c-1.9-1.4-2.7-1.7-4,0c-1.3,1.8-0.7,2.9,1.3,4.4L146.7,562.9z M150.8,557.3l3.1-4.2l-3.9-2.9
		c-2.1-1.5-3.3-1.9-4.7,0c-1.2,1.7-0.5,2.7,1.5,4.2L150.8,557.3z"/>
	<path d="M132,520.9l10.6,10.3L135,539c-2-1.1-6.7-1.4-11.4,0c-0.9,0.3-1.7,0.6-2.4,1.4c-0.6,0.6-0.8,1.6,0.1,2.5l2.4,2.3l-7.5,7.7
		L98,535.2l6.4-6.7c1.6-1.7,2.4-4.1,2.7-5.6l1.2-5c0.7-2.7,0.7-3.9,0.3-4.6l7.6-7.8l13.9,13.4l-7.2,7.4c-1-1-1.9-0.8-2.5-0.2
		c-0.5,0.5-0.7,1.2-0.9,1.8l-0.2,1.2l6,5.8c1.1-1.6,1.2-3.9-0.5-6.7L132,520.9z M124.1,536.4l-5.3-5.2l-1.7,7.6l4.5-1.1
		C122.4,537.4,123.3,537,124.1,536.4z"/>
	<path d="M99.6,483.6c4.9,6.2,5.3,10.4-2.3,17.4l1,1.3l9.4-7.4l7.1,9l-11,8.6l-8.4-10.7c1.1-1.6,0.5-3.5-1.1-5.5
		c-1.7-2.1-3-2.6-4.2-1.7c-1.1,0.9-1.2,2,0.7,4.4c1.7,2.2,3.6,4.3,5.3,6.6c4.9,6.2,2.8,10.5-1.3,13.7c-3.9,3.1-9.1,3.5-13.7-2.4
		c-4.5-5.7-4.7-10.1,2.8-17.3l-0.9-1.2l-9.7,7.7l-7.1-9.1l11.3-8.8l8.4,10.7c-1.4,1.9-0.6,3.8,1,5.8c1.8,2.2,3.1,2.4,4.1,1.5
		c1.1-0.8,1.1-2.1-1.4-5.2c-0.4-0.6-3.8-4.6-4.9-6c-5.7-7.3-3.7-11,0.7-14.4C89.4,477.6,94.5,477.1,99.6,483.6z"/>
	<path d="M79,451.1c4,6.9,3.8,11.1-4.7,16.9l0.8,1.4l10.3-6.1l5.7,9.9l-12.1,7l-6.8-11.8c1.3-1.4,1-3.4-0.3-5.6
		c-1.3-2.3-2.6-3-4-2.2c-1.2,0.7-1.5,1.8,0.1,4.4c1.4,2.4,2.9,4.8,4.4,7.2c4,6.9,1.3,10.8-3.2,13.4c-4.3,2.5-9.5,2.2-13.2-4.3
		c-3.6-6.3-3.3-10.6,5.2-16.7l-0.8-1.3l-10.6,6.2l-5.8-10l12.4-7.2l6.8,11.8c-1.7,1.7-1.1,3.6,0.2,5.9c1.4,2.5,2.7,2.8,3.9,2.1
		c1.2-0.7,1.3-1.9-0.7-5.3c-0.3-0.6-3.1-5.1-4-6.6c-4.6-8-2.1-11.4,2.8-14.2C69.7,443.7,74.8,443.9,79,451.1z"/>
	<path d="M43.8,419.4c-2.8-2.4-8.4,1.3-13.8-3.1c-3.6-3-3.6-7-0.8-10.2c2.7-3.3,6.6-4.1,10.2-1.1c5.4,4.4,2.8,10.6,5.6,13
		c0.6,0.5,1.2,0.7,1.7,0.5c0.6-0.2,0.8-0.7,1-1.5c0.6-3.7-5.4-6.6-4.2-13.5c0.7-4.6,4.2-6.5,8.4-5.9c4.2,0.7,6.8,3.7,6.1,8.3
		c-1.2,6.9-7.8,7.7-8.4,11.3c-0.2,0.8-0.1,1.3,0.4,1.7c0.5,0.4,1,0.4,1.8,0.1c3.5-1.3,3.1-8,9.6-10.4c4.4-1.6,7.8,0.4,9.3,4.4
		s0.2,7.7-4.2,9.4c-6.6,2.4-10.6-2.9-14.1-1.6c-0.8,0.3-1.1,0.7-1.2,1.2c-0.1,0.6,0.1,1.1,0.8,1.6c2.9,2.4,8.5-1.4,13.8,3.1
		c3.6,3,3.6,6.9,0.9,10.2c-2.8,3.3-6.6,4.1-10.2,1c-5.3-4.5-2.7-10.5-5.6-13c-0.6-0.5-1.1-0.7-1.7-0.5c-0.6,0.2-0.8,0.7-1,1.5
		c-0.6,3.7,5.4,6.7,4.2,13.5c-0.8,4.7-4.2,6.6-8.4,5.9s-6.8-3.7-6-8.3c1.2-6.9,7.8-7.6,8.4-11.3c0.2-0.8,0-1.3-0.4-1.7
		c-0.5-0.4-1-0.4-1.8-0.1c-3.5,1.3-3,8-9.6,10.4c-4.4,1.6-7.8-0.4-9.3-4.4s-0.2-7.7,4.2-9.4c6.6-2.4,10.6,2.9,14,1.6
		c0.8-0.3,1.2-0.6,1.3-1.3C44.7,420.4,44.5,419.9,43.8,419.4z"/>
	<path d="M31.3,360.9l0.4,2.1l-2.6,0.5c-2.7,0.5-3.6,2.1-2.7,6.7l0.2,1.2l8.9-1.7c3-0.6,3.1-0.7,2.2-5.5l10.7-2.1l4.5,23.1
		l-10.7,2.1c-0.9-4.8-1.1-4.7-4-4.1l-8.9,1.7l0.2,1.1c0.9,4.6,2.3,5.7,5,5.2l2.6-0.5l0.4,2.1l-17.1,3.4l-6.2-31.9L31.3,360.9z"/>
	<path d="M29.5,331.1l0.5,9.1l2-0.1c3-0.2,3.2-0.2,3-3.2l10.9-0.6l1,18.9L36,355.7c-0.2-3.7-0.4-3.7-3.4-3.5l-5.9,0.3
		c-3,0.2-3.2,0.2-3,3.9L13,356.9L12,338l10.8-0.6c0.2,3.1,0.3,3.1,3.3,2.9l1.7-0.1l-0.5-9.1l-1.7,0.1c-3,0.2-3.2,0.2-3,3.2L11.8,335
		l-1-18.9l10.8-0.6c0.2,3.7,0.4,3.8,3.4,3.6l5.9-0.3c3-0.2,3.2-0.2,3-3.9l10.9-0.6l1,18.9l-10.9,0.6c-0.2-3.1-0.3-3.1-3.3-2.9
		L29.5,331.1z"/>
	<path d="M45.2,311.1l-10.8-1c0.3-3.7,0.2-3.7-2.8-4l-5.8-0.5c-3-0.3-3.2-0.3-3.5,3.4l-10.8-1l2.8-31.4l15.3,1.4l-0.2,1.8
		c-3.5,1.9-4.8,4.6-5.8,13.5l4.9,0.4c-0.1-3.6-0.5-5.7-1.3-7.5l0.1-1.4l5.8,0.5l-0.1,1.4c-1.1,1.5-1.9,3.5-2.6,7.2l5.4,0.5
		c0.3-9.2-0.6-12.1-3.7-14.6l0.2-1.8l15.8,1.4L45.2,311.1z"/>
	<path d="M34.3,236c-1.4,5.4-1.4,6.1,1.5,6.8l8.8,2.3l0.2-0.7c2-7.7,1.2-9.6-3.9-10.9c-0.5-0.1-1-0.3-1.6-0.4l0.5-1.9l18.4,4.8
		l-7.5,28.8l-10.5-2.7c0.9-3.6,0.8-3.6-2.1-4.4l-5.7-1.5c-2.9-0.8-3.1-0.8-4,2.8l-10.5-2.7l6-23L34.3,236z"/>
	<path d="M66.6,216c-5.3,12.8-12.9,15.4-23.6,11c-10.9-4.5-14.2-11.5-8.9-24.3c5.3-12.9,12.8-15.6,23.5-11.2
		C68,195.8,71.9,203.1,66.6,216z M44.1,206.8c-1.3,3.3-0.3,5.4,4.1,7.2c4.5,1.8,7.1,1.2,8.4-2.1c1.4-3.4,0-5.6-4.5-7.4
		C47.7,202.7,45.5,203.4,44.1,206.8z"/>
	<path d="M80,169.2l-0.5,0.8l5.8,7.4l-7,11.2l-20.9-5.1c-2.2-0.6-3,0-3.6,0.7l-9.2-5.7l9.5-15.2l9.2,5.7c-1.2,2-0.8,3.4,0.3,4
		c1.1,0.7,2.2,0.5,3.6-0.1l9.9-3.5l-0.1-0.9l-8.9-2.2c-2.2-0.5-3,0-3.6,0.7l-9.2-5.7l9.7-15.4l9.2,5.7c-1.2,2-0.8,3.3,0.3,4
		c0.9,0.6,1.9,0.6,3.3,0.4l10.4-2c-2.4-2.6-4-4.3-5.6-5.3c-2.4-1.5-4.6-1.1-7.1,0.8l-9.2-5.7l6.3-10l9.2,5.7
		c-0.3,1.6,0.6,3.5,3.8,7.5l10.5,13.2l-7,11.2L80,169.2z"/>
	<path d="M103,150.8l-8.1-7.2c2.5-2.8,2.4-2.9,0.1-4.9l-4.4-3.9c-2.3-2-2.4-2.1-4.8,0.7l-8.1-7.2l12.5-14.1
		c9.3-10.5,16.7-9.8,24.9-2.5c8.6,7.6,9.9,14.3,1.1,24.2L103,150.8z M96.4,123.6l9,8l2.2-2.5c1.8-2,3.1-4.5-0.9-8
		c-3.7-3.3-5.3-3.2-7.8-0.4L96.4,123.6z"/>
	<path d="M144.6,109.4c-10.6,8.9-18.6,7.6-26-1.3c-7.6-9-7.2-16.8,3.4-25.7c10.7-9,18.6-7.8,26,1
		C155.2,92.1,155.3,100.4,144.6,109.4z M129,90.8c-2.7,2.3-2.8,4.6,0.3,8.3c3.1,3.7,5.7,4.4,8.4,2.1c2.8-2.4,2.6-5-0.5-8.7
		C134.1,88.9,131.8,88.4,129,90.8z"/>
	<path d="M178.2,74.2l-0.8,0.5l1.7,9.3l-11.4,6.6l-16.1-14.2c-1.7-1.5-2.7-1.4-3.5-1.1l-5.5-9.3l15.5-9l5.5,9.3
		c-2,1.2-2.3,2.6-1.6,3.7c0.7,1.2,1.7,1.5,3.2,1.6l10.4,1.5l0.4-0.8l-6.9-6.1c-1.7-1.4-2.7-1.4-3.5-1.1l-5.5-9.3l15.7-9.2l5.5,9.3
		c-2,1.2-2.2,2.6-1.6,3.7c0.5,0.9,1.4,1.5,2.7,1.9l10.1,3.1c-0.9-3.4-1.6-5.7-2.5-7.3c-1.4-2.5-3.6-3.1-6.7-2.5l-5.5-9.3l10.2-6
		l5.5,9.3c-1,1.3-1.1,3.4-0.1,8.4l3.2,16.5l-11.4,6.7L178.2,74.2z"/>
	<path d="M220.2,63.6l-13.1,4.9l-3.8-10.2c2.2-1.2,2.2-3.9,0.7-8l-0.6-1.7c-1-2.8-1-2.9-4.3-1.7l-3.8-10.1l19.8-7.4l3.3,8.9
		c1,2.7,1.6,3.6,5.2,4.7l10,3.1h0.1l-0.1-0.4c-1.7-4.5-6.7-8.1-11.7-7.3l-3.8-10.1l12.9-4.8l3.8,10.1c-1.9,1.2-2.3,2.9-0.7,7.3
		l5.8,15.5l-16.5,6.2l-3.6-9.6c-0.9-2.5-2.1-3.4-4.9-4.3l-10.1-3c1.8,4.2,5.2,7.6,12,7.8L220.2,63.6z"/>
	<path d="M275,49.1c-13.7,2.3-19.9-2.9-21.8-14.3c-2-11.6,2.2-18.1,15.9-20.4c13.8-2.3,20,2.7,21.9,14
		C292.9,39.6,288.8,46.8,275,49.1z M270.9,25.1c-3.5,0.6-4.7,2.6-3.9,7.3c0.8,4.8,2.7,6.6,6.2,6c3.6-0.6,4.7-3,3.9-7.8
		C276.3,26.1,274.5,24.5,270.9,25.1z"/>
	<path d="M310.7,44.8l-14,0.3l-0.2-10.9c2.5-0.4,3.4-3,3.3-7.3v-1.8c-0.1-3,0-3.1-3.5-3.1L296,11.2l21.1-0.4l0.2,9.5
		c0.1,2.9,0.4,3.9,3.3,6.2l8.4,6.3h0.1v-0.4c-0.2-4.8-3.6-9.9-8.6-10.8l-0.2-10.8l13.7-0.3l0.2,10.8c-2.2,0.5-3.2,2-3.1,6.7
		l0.3,16.5l-17.7,0.4l-0.2-10.3c-0.1-2.7-0.9-3.9-3.2-5.7l-8.5-6.2c0.3,4.6,2.4,8.9,8.7,11.3L310.7,44.8z"/>
	<path d="M382.9,34.2l-2.1-0.3l0.4-2.7c0.4-2.7-0.8-4.1-5.4-4.8l-1.2-0.2l-1.4,8.9c-0.5,3-0.4,3.1,4.4,3.9L376,49.8l-23.3-3.7
		l1.7-10.7c4.8,0.8,4.8,0.6,5.3-2.4l1.4-8.9l-1.1-0.2c-4.6-0.7-6.2,0.2-6.6,2.9l-0.4,2.7l-2.1-0.3l2.7-17.2l32.1,5L382.9,34.2z"/>
	<path d="M411.6,42.8l-8.7-2.7l-0.6,2c-0.9,2.9-0.9,3,2,3.9l-3.2,10.4L383,50.8l3.2-10.4c3.5,1.1,3.6,0.9,4.5-1.9l1.7-5.6
		c0.9-2.9,0.9-3.1-2.6-4.1l3.2-10.3l18.1,5.6l-3.2,10.3c-2.9-0.9-3-0.7-3.9,2.1l-0.5,1.6l8.7,2.7l0.5-1.6c0.9-2.9,0.9-3-2-3.9
		l3.2-10.3l18.1,5.6l-3.2,10.3c-3.6-1.1-3.6-1-4.5,1.9l-1.7,5.6c-0.9,2.9-0.9,3.1,2.7,4.1L422,62.8l-18.1-5.6l3.2-10.4
		c2.9,0.9,3,0.7,3.9-2.1L411.6,42.8z"/>
	<path d="M424.9,64.3l4.7-9.8c3.4,1.6,3.4,1.4,4.7-1.3l2.5-5.3c1.3-2.7,1.4-2.9-2-4.5l4.6-9.8L468,47.2l-6.6,13.9l-1.7-0.8
		c-0.5-3.9-2.7-6.1-10.6-10.1l-2.1,4.5c3.4,1.2,5.5,1.5,7.5,1.4l1.3,0.6l-2.5,5.3l-1.3-0.6c-1-1.5-2.6-3-5.8-4.9l-2.3,4.9
		c8.5,3.5,11.5,3.6,14.9,1.5l1.7,0.8L453.6,78L424.9,64.3z"/>
	<path d="M466.5,85.3l6.3-8.9c3,2.2,3.1,2,4.9-0.4l3.4-4.8c1.8-2.5,1.8-2.6-1.2-4.7l6.3-8.8l17.1,12.2c9.3,6.7,11.1,10.5,7.3,15.8
		c-3.9,5.5-7.4,3.9-13.1,0l-0.9,1.2c5.9,4.3,8.8,7.1,4.9,12.5c-3.9,5.5-8.3,5-17.6-1.6L466.5,85.3z M488.7,81.4l-3,4.3l3.9,2.8
		c2.1,1.5,3.4,1.9,4.7,0c1.2-1.7,0.5-2.7-1.5-4.1L488.7,81.4z M492.8,75.7l-3,4.2l4.1,2.9c1.9,1.3,2.8,1.7,4-0.1
		c1.3-1.8,0.6-2.9-1.4-4.4L492.8,75.7z"/>
	<path d="M508,117.5l-10.8-10.2l7.5-7.9c2,1,6.7,1.3,11.4-0.1c0.9-0.3,1.7-0.7,2.4-1.4c0.6-0.6,0.8-1.7-0.1-2.5l-2.4-2.3l7.4-7.8
		l18.5,17.5l-6.4,6.7c-1.6,1.7-2.3,4.1-2.6,5.6l-1.1,5c-0.6,2.7-0.6,3.9-0.3,4.6l-7.5,7.9l-14-13.3l7.1-7.5c1,1,1.9,0.8,2.5,0.2
		c0.5-0.5,0.7-1.2,0.9-1.8l0.2-1.2l-6.1-5.8c-1.1,1.6-1.2,3.9,0.5,6.7L508,117.5z M515.7,101.9l5.4,5.1l1.7-7.6l-4.5,1.2
		C517.3,100.9,516.5,101.3,515.7,101.9z"/>
	<path d="M540.7,154.4c-4.9-6.2-5.4-10.4,2.1-17.5l-1-1.3l-9.3,7.5l-7.2-9l10.9-8.7l8.5,10.6c-1.1,1.6-0.5,3.5,1.1,5.4
		c1.7,2.1,3,2.6,4.3,1.6c1.1-0.9,1.2-2-0.7-4.4c-1.7-2.1-3.6-4.3-5.4-6.5c-4.9-6.2-2.9-10.5,1.1-13.7c3.9-3.1,9.1-3.6,13.7,2.3
		c4.5,5.7,4.8,10-2.6,17.3l0.9,1.2l9.6-7.8l7.2,9l-11.2,8.9l-8.5-10.6c1.4-2,0.6-3.8-1-5.8c-1.8-2.2-3.1-2.3-4.2-1.5s-1,2.1,1.5,5.2
		c0.4,0.5,3.9,4.6,4.9,5.9c5.7,7.2,3.8,10.9-0.6,14.5C551.1,160.3,545.9,160.9,540.7,154.4z"/>
	<path d="M561.8,186.6c-4-6.8-3.9-11,4.5-17l-0.8-1.4l-10.2,6.2l-5.8-9.9l12-7.1l6.9,11.7c-1.3,1.4-0.9,3.4,0.3,5.6
		c1.4,2.3,2.7,3,4,2.2c1.2-0.7,1.4-1.8-0.1-4.4c-1.4-2.4-3-4.7-4.4-7.2c-4-6.8-1.4-10.8,3-13.4c4.3-2.6,9.5-2.3,13.3,4.1
		c3.7,6.3,3.4,10.6-5,16.8l0.8,1.3l10.6-6.4l5.9,10l-12.3,7.3l-6.9-11.7c1.7-1.7,1.1-3.7-0.2-5.9c-1.5-2.5-2.8-2.7-3.9-2.1
		c-1.2,0.7-1.3,1.9,0.7,5.3c0.4,0.6,3.2,5.1,4.1,6.5c4.7,7.9,2.3,11.4-2.6,14.2C571.2,194,566,193.8,561.8,186.6z"/>
	<path d="M597.7,219c2.9,2.4,8.4-1.4,13.8,3c3.6,3,3.6,6.9,0.9,10.2c-2.7,3.3-6.6,4.1-10.2,1.2c-5.4-4.4-2.9-10.6-5.7-12.9
		c-0.7-0.5-1.2-0.7-1.7-0.4c-0.6,0.2-0.8,0.7-1,1.5c-0.5,3.7,5.4,6.6,4.3,13.5c-0.7,4.6-4.1,6.6-8.3,5.9c-4.2-0.7-6.8-3.6-6.1-8.3
		c1.1-6.9,7.8-7.7,8.3-11.4c0.2-0.8,0.1-1.3-0.4-1.7s-1-0.4-1.8-0.1c-3.5,1.3-3,8-9.6,10.5c-4.4,1.7-7.8-0.3-9.3-4.3
		s-0.3-7.7,4.1-9.4c6.5-2.5,10.6,2.8,14.1,1.5c0.8-0.3,1.1-0.7,1.2-1.3c0.1-0.6-0.1-1.1-0.8-1.6c-2.9-2.4-8.4,1.4-13.8-3
		c-3.6-2.9-3.7-6.9-1-10.2s6.6-4.1,10.2-1.1c5.4,4.4,2.8,10.5,5.7,12.9c0.6,0.5,1.1,0.7,1.7,0.5c0.6-0.2,0.8-0.7,1-1.5
		c0.6-3.7-5.5-6.6-4.3-13.5c0.8-4.7,4.2-6.6,8.4-6s6.8,3.6,6.1,8.3c-1.1,6.9-7.7,7.7-8.3,11.4c-0.2,0.8,0,1.3,0.4,1.7
		c0.5,0.4,1,0.4,1.8,0.1c3.5-1.3,3-8,9.5-10.5c4.4-1.7,7.8,0.3,9.3,4.3s0.3,7.7-4.1,9.4c-6.5,2.5-10.6-2.8-14.1-1.5
		c-0.8,0.3-1.2,0.6-1.2,1.3C596.8,218.1,597.1,218.5,597.7,219z"/>
</g>
</svg>
