<svg xmlns="http://www.w3.org/2000/svg" viewBox="0 0 68.02 68.02"><defs><style>.cls-1{fill:#e37f3d;}.cls-2{fill:#fff7ea;}</style></defs><g id="Layer_2" data-name="Layer 2"><g id="Layer_1-2" data-name="Layer 1"><circle class="cls-1" cx="34.01" cy="34.01" r="34.01"/><path class="cls-2" d="M31.61,24.11c-4.38,0-10.46.15-15,.43l.14-5.65c3.67.42,10.31.56,17.8.56,5,0,11.73-.14,16.82-.56l-.14,5.79C47.44,24.4,40,24.11,31.61,24.11Z"/><path class="cls-2" d="M31.61,36.34c-4.38,0-10.46.14-15,.43l.14-5.66c3.67.43,10.31.57,17.8.57,5,0,11.73-.14,16.82-.57l-.14,5.8C47.44,36.62,40,36.34,31.61,36.34Z"/><path class="cls-2" d="M31.61,48.57c-4.38,0-10.46.14-15,.42l.14-5.65c3.67.42,10.31.56,17.8.56,5,0,11.73-.14,16.82-.56l-.14,5.79C47.44,48.85,40,48.57,31.61,48.57Z"/></g></g></svg>