<?xml version="1.0" encoding="utf-8"?>
<!-- Generator: Adobe Illustrator 24.2.1, SVG Export Plug-In . SVG Version: 6.00 Build 0)  -->
<svg version="1.1" id="Layer_1" xmlns="http://www.w3.org/2000/svg" xmlns:xlink="http://www.w3.org/1999/xlink" x="0px" y="0px"
	 viewBox="0 0 237.6 237.6" style="enable-background:new 0 0 237.6 237.6;" xml:space="preserve">
<style type="text/css">
	.st0{fill:#323539;}
</style>
<g>
	<path class="st0" d="M32.2,52.3l1.9,1.5L33,55.2l-6.9-5.4l2.2-2.8c1.5-1.9,3-2.1,4.5-0.9c1.7,1.4,2,3.2,0.6,5
		C33.1,51.4,32.6,51.9,32.2,52.3z M33.2,49c-0.3-0.6-0.7-1.1-1.2-1.5c-1-0.8-1.8-0.7-2.8,0.7c-0.3,0.4-0.6,0.7-0.8,1.1l2.8,2.2
		c0.4-0.4,0.8-0.8,1.2-1.3C32.6,49.9,32.9,49.5,33.2,49z"/>
	<path class="st0" d="M38.5,48.4L32,42.6l1.2-1.3l6.5,5.8L38.5,48.4z"/>
	<path class="st0" d="M44.2,38.3c1.5,1.5,1.2,3.1-0.3,4.7c-1.8,1.8-3.6,2.2-5.9-0.1c-2.2-2.2-2.6-4.3-0.4-6.5
		c1.5-1.5,3.1-1.6,4.8,0.2l-1.2,1.2c-1.1-1.1-1.7-1.2-2.7-0.2c-0.4,0.4-0.7,0.9-1,1.4c0.4,0.9,1.1,1.7,1.7,2.4
		c1.3,1.3,2.4,1.7,3.7,0.4c0.4-0.4,0.7-0.8,0.9-1.2c-0.2-0.4-0.5-0.8-0.8-1.1L44.2,38.3z"/>
	<path class="st0" d="M47.6,34.8l-0.8,0.7L49,38l-1.3,1.1L42,32.4l1.3-1.1l2.6,3.1l0.8-0.7c0-1.5-0.2-3.2-0.7-4.7l1.5-1.2l0.1,0.1
		c0.6,2,0.7,3.8,0.4,5.5l5.1,0.9l0.1,0.1l-1.6,1.4L47.6,34.8z"/>
</g>
</svg>
