<?xml version="1.0" encoding="utf-8"?>
<!-- Generator: Adobe Illustrator 24.2.1, SVG Export Plug-In . SVG Version: 6.00 Build 0)  -->
<svg version="1.1" id="Layer_1" xmlns="http://www.w3.org/2000/svg" xmlns:xlink="http://www.w3.org/1999/xlink" x="0px" y="0px"
	 viewBox="0 0 237.6 237.6" style="enable-background:new 0 0 237.6 237.6;" xml:space="preserve">
<style type="text/css">
	.st0{fill:#323539;}
</style>
<g>
	<path class="st0" d="M5.8,98.1l1.5-6.8l1.5,0.3c-0.2,0.9-0.4,1.7-0.7,2.5l7.2,1.5l-0.4,1.7l-7-1.5l-0.5,2.5L5.8,98.1z"/>
	<path class="st0" d="M17.9,86.3l-3.3-1c0,0.5-0.1,1.3-0.3,1.9c-0.2,0.7-0.5,1.4-0.9,1.9l3.3,1l-0.5,1.7l-8.4-2.5l0.5-1.7l3.9,1.2
		l1.1-3.8l-3.9-1.2l0.5-1.7l8.4,2.5L17.9,86.3z"/>
	<path class="st0" d="M20.7,79.1c-0.8,2.1-2.1,3-4.5,2.1L11,79.1l0.7-1.6l5.1,2.1c1.1,0.4,2,0.5,2.7-1.3c0.2-0.4,0.3-0.8,0.3-1.3
		c-0.4-0.5-0.9-0.8-1.4-1l-5.2-2.1l0.7-1.6l5.1,2.1C20.8,75.1,21.6,76.8,20.7,79.1z"/>
	<path class="st0" d="M23.6,72l-0.7,1.4l-7.7-4.1l1.3-2.5l4.1,0.4c0.6,0.1,1.5,0.2,2.2,0.4l0.1-0.2c-0.6-0.5-1.2-1.2-1.6-1.7
		l-2.6-3.1l1.2-2.3l7.7,4.1l-0.8,1.5l-3.8-2c-0.9-0.5-1.9-1.1-2.7-1.5l-0.1,0.2c0.7,0.7,1.5,1.6,2.2,2.4l2.2,2.8l-0.7,1.4l-3.6-0.3
		c-1.2-0.1-2.2-0.3-3.2-0.5l-0.1,0.2c0.8,0.4,1.9,1,2.8,1.4L23.6,72z"/>
	<path class="st0" d="M27.9,59.7l2,1.4l-1,1.4l-7.3-4.9l2-3c1.4-2,2.9-2.3,4.4-1.2c1.8,1.2,2.2,3,0.9,4.9
		C28.7,58.7,28.3,59.2,27.9,59.7z M28.6,56.3c-0.3-0.6-0.7-1-1.3-1.4c-1.1-0.7-1.8-0.6-2.8,0.9c-0.3,0.4-0.5,0.8-0.8,1.2l3,2
		c0.3-0.4,0.7-0.9,1.1-1.4C28.1,57.2,28.4,56.8,28.6,56.3z"/>
	<path class="st0" d="M33.9,55.3l-7-5.3l1.1-1.4l7,5.3L33.9,55.3z"/>
	<path class="st0" d="M35.1,46.9c-1-0.2-2.3-0.6-3.3-0.9l-0.1,0.1c0.9,0.6,2.2,1.7,2.9,2.3l2.7,2.4l-1,1.2l-6.6-5.7l1.5-1.8l4.2,0.8
		c1.2,0.2,2.6,0.7,3.6,1l0.1-0.1c-0.8-0.6-2-1.5-2.7-2.1l-2.8-2.4l1-1.2l6.6,5.7l-1.4,1.6L35.1,46.9z"/>
	<path class="st0" d="M36.4,37.1c0.9-0.1,1.5,0.1,1.9,0.5c0.6,0.6,1,1.9,0.8,3.3l-0.9-0.1c0.1-0.8,0.1-1.4-0.1-2l-1.7-0.1L36.4,37.1
		z"/>
	<path class="st0" d="M54.1,34.6c-0.2,0.2-0.4,0.4-0.6,0.6c-0.8,0.7-1.7,1-2.8,1.2c-0.1,0.8-0.7,1.8-1.5,2.5c-1.2,1-2.6,1.2-3.7-0.2
		c-0.9-1.1-0.7-2.2-0.2-3.3c-0.6-0.3-1.1-0.7-1.5-1.1c-1.1-1.3-0.5-2.7,0.6-3.7c1.2-1.1,2.3-0.9,3.1-0.1c1.1,1.3,0.2,2.7-0.7,3.7
		c1.1,0.4,2.4,0.6,3.5,0.4c-0.1-1.1-0.7-2.1-1.3-2.9l1.3-1.1c1,1.1,1.1,2.5,0.8,3.8c0.5-0.2,0.9-0.4,1.3-0.7
		c0.1-0.1,0.4-0.3,0.6-0.5L54.1,34.6z M46.2,34c0.6-1,0.7-1.7,0.2-2.3c-0.3-0.4-0.8-0.5-1.3-0.1c-0.3,0.3-0.5,0.5-0.7,0.7
		c0.1,0.2,0.2,0.4,0.4,0.6C45.2,33.4,45.6,33.7,46.2,34z M49.7,36.5c-1.3,0-2.6-0.2-3.7-0.7c-0.1,0.6,0.1,1.1,0.5,1.6
		c0.6,0.7,1.4,1,2.4,0.1C49.3,37.1,49.6,36.8,49.7,36.5z"/>
	<path class="st0" d="M58.3,28.5l1.3,2l-1.4,1l-4.8-7.3l3-2c2-1.3,3.5-1,4.6,0.6c1.2,1.8,0.9,3.6-1,4.9C59.5,28,58.9,28.3,58.3,28.5
		z M60.4,25.7c-0.1-0.6-0.3-1.2-0.6-1.8c-0.7-1.1-1.5-1.2-2.9-0.3c-0.4,0.3-0.8,0.5-1.2,0.8l2,3c0.5-0.2,1-0.5,1.5-0.9
		C59.5,26.4,59.9,26.1,60.4,25.7z"/>
	<path class="st0" d="M61.3,19.2l1.5-0.8l3.5,6.3l3.3-1.9l0.7,1.3l-4.9,2.7L61.3,19.2z"/>
	<path class="st0" d="M74.8,22.2c-2.1,0.9-3.6,0.8-4.7-1.6l-2.3-5l1.6-0.7l2.3,4.9c0.5,1,1.1,1.7,2.9,0.9c0.4-0.2,0.8-0.4,1.1-0.7
		c0-0.6-0.1-1.2-0.3-1.7L73,13.3l1.6-0.7l2.3,5C77.7,19.4,77.1,21.2,74.8,22.2z"/>
	<path class="st0" d="M86,14.5c0.7,2-0.2,3.3-2.3,4.1c-2.4,0.8-4.2,0.4-5.3-2.6c-1.1-3-0.5-5,2.4-6c1.9-0.7,3.5-0.1,4.3,2.2
		l-1.6,0.6c-0.5-1.4-1.1-1.8-2.4-1.3c-0.5,0.2-1,0.5-1.5,0.8c0,1,0.2,2,0.5,2.9c0.6,1.8,1.5,2.5,3.2,1.9c0.5-0.2,1-0.4,1.3-0.7
		c0-0.4-0.1-0.9-0.3-1.3L86,14.5z"/>
	<path class="st0" d="M90.6,12.8l-1,0.3l0.9,3.2l-1.7,0.5l-2.3-8.5l1.7-0.5l1,3.9l1.1-0.3c0.7-1.4,1.2-3,1.3-4.6l1.9-0.5l0,0.1
		c-0.3,2.1-1,3.7-1.9,5.1l4.3,3l0,0.1l-2.1,0.6L90.6,12.8z"/>
	<path class="st0" d="M97.3,14.6L95.5,6l1.7-0.3l1.7,8.6L97.3,14.6z"/>
	<path class="st0" d="M103.6,9.2c-0.6-0.8-1.4-2-1.9-2.9l-0.1,0c0.3,1.1,0.6,2.7,0.7,3.7l0.5,3.6l-1.6,0.2L100,5.2l2.3-0.3l2.7,3.3
		c0.8,1,1.6,2.2,2.1,3.1l0.1,0c-0.3-1-0.6-2.4-0.7-3.3l-0.6-3.6l1.6-0.2l1.3,8.6l-2.1,0.3L103.6,9.2z"/>
	<path class="st0" d="M111.2,2.6c0.7,0.6,1,1,1.1,1.7c0.1,0.9-0.5,2.1-1.6,3L110,6.6c0.6-0.5,1-1,1.3-1.6L110,3.9L111.2,2.6z"/>
</g>
</svg>
