<svg width="278" height="83" viewBox="0 0 278 83" fill="none" xmlns="http://www.w3.org/2000/svg">
<path fill-rule="evenodd" clip-rule="evenodd" d="M230.841 75.7554C234.797 70.6957 240.307 63.6498 249.09 57.7106C256.983 52.3138 263.854 49.7823 268.915 47.9177C274.599 45.8232 278 44.5703 278 41.0433C278 37.5233 274.613 36.3264 268.948 34.3248C263.884 32.5355 257 30.103 249.09 24.7927C240.251 18.9325 234.727 11.8196 230.765 6.71802C227.684 2.75092 225.547 0 223.531 0C222.065 0 221.017 1.04169 221.017 2.70844C221.017 4.29791 221.234 5.88739 221.447 7.44952C221.653 8.95868 221.855 10.4423 221.855 11.8755C221.855 14.7922 220.179 15.6256 217.665 15.6256C204.727 15.6256 127.792 14.6527 69.9087 13.9207C35.0037 13.4793 7.02698 13.1255 4.18988 13.1255C2.09497 13.1255 0 14.1672 0 16.2506C0 18.7918 0.238525 22.0051 0.507751 25.6322C0.856567 30.3314 1.25696 35.7251 1.25696 41.2516C1.25696 46.7358 0.862671 52.0239 0.515747 56.6768C0.243286 60.3317 0 63.5945 0 66.2526C0 68.336 1.88544 69.3777 4.18988 69.3777C8.69067 69.3777 76.4595 68.5615 134.788 67.859C174.2 67.3843 209.302 66.9616 217.665 66.8776C219.97 66.8776 221.855 67.711 221.855 70.6277C221.855 72.2172 221.639 73.8067 221.425 75.3688C221.22 76.878 221.017 78.3616 221.017 79.7948C221.017 81.4615 222.065 82.5032 223.531 82.5032C225.564 82.5032 227.719 79.7476 230.841 75.7554ZM117.285 46.7758C116.449 47.8137 114.737 49.3127 112.229 49.3127C109.801 49.3127 108.169 48.1212 108.169 46.353C108.169 45.2242 108.545 44.1182 108.889 43.1091L108.889 43.1086C109.178 42.2622 109.443 41.4841 109.443 40.8179C109.443 40.3182 109.164 40.0876 108.686 40.0876C107.97 40.0876 107.293 40.741 106.497 42.2786C105.78 43.5854 104.904 47.3524 104.904 48.3134C104.904 48.9668 104.626 49.1205 104.068 49.1205C103.35 49.1205 102.281 49.1856 101.388 49.2401C100.746 49.2791 100.194 49.3127 99.928 49.3127C99.4503 49.3127 99.1717 49.1205 99.1717 48.4671C99.1717 48.043 99.2307 47.5308 99.3334 46.9488C97.994 48.1269 95.916 49.3127 93.7177 49.3127C90.8514 49.3127 89.6172 47.6599 89.6172 45.6227C89.6172 44.3168 89.965 43.1626 90.2913 42.0795C90.5797 41.1222 90.8514 40.2205 90.8514 39.3188C90.8514 39.0893 90.6245 39.0301 90.3792 38.9661C90.0906 38.8907 89.7765 38.8088 89.7765 38.4348C89.7765 38.0504 90.0154 37.3201 90.4532 37.3201C92.5632 37.3201 94.5537 35.5519 95.9471 33.7068C96.3849 33.1303 96.8229 32.8612 97.1812 32.8612C97.6191 32.8612 97.8579 33.1303 97.8579 33.5531C97.8579 34.003 97.7002 34.6379 97.5526 35.2319L97.5524 35.2325C97.4226 35.7548 97.3006 36.2456 97.3006 36.5513C97.3006 37.051 97.4996 37.3201 98.5347 37.3201C98.8532 37.3201 99.092 37.4354 99.092 37.7429C99.092 38.5116 98.6542 39.0497 98.1764 39.0497C97.1812 39.0497 96.8627 39.3572 96.584 40.2798C96.2656 41.3945 95.748 43.3548 95.748 44.6233C95.748 45.738 96.3452 46.1224 97.3006 46.1224C98.057 46.1224 98.8134 45.5458 99.4105 45.0845C99.4792 45.0329 99.5436 44.9827 99.6044 44.9352C99.6803 44.876 99.7507 44.8211 99.8172 44.7731C100.046 43.8712 100.316 42.8903 100.599 41.8671C101.568 38.3564 102.675 34.3483 102.675 31.3237C102.675 30.0552 102.197 29.4402 101.361 29.4402C101.003 29.4402 100.764 29.2865 100.764 28.979C100.764 28.1718 103.073 26.9033 105.342 26.9033C107.452 26.9033 108.925 27.9796 108.925 29.9015C108.925 32.054 107.213 37.5891 106.656 39.2804C107.651 38.2041 109.482 37.1279 111.752 37.1279C113.941 37.1279 115.335 38.0888 115.335 39.7416C115.335 40.6886 115.045 41.5329 114.75 42.3895C114.448 43.2714 114.14 44.1664 114.14 45.1998C114.14 45.738 114.618 46.1992 115.175 46.1992C115.852 46.1992 116.171 45.8917 116.688 45.392C116.747 45.3351 116.801 45.2851 116.851 45.2416C116.788 44.8925 116.755 44.52 116.755 44.1236C116.755 40.3951 120.06 37.051 125.354 37.051C128.061 37.051 129.495 38.3195 129.495 40.0491C129.495 42.3939 126.827 44.5079 123.045 44.5079C123.125 45.8149 124.2 46.8527 125.713 46.8527C127.066 46.8527 128.061 46.2761 128.698 45.8533L128.725 45.8349L128.726 45.8344L128.727 45.834L128.728 45.8331L128.729 45.8325C129.111 45.5746 129.381 45.392 129.614 45.392C129.932 45.392 130.131 45.6227 130.131 45.8533C130.131 46.2377 129.893 46.5452 129.256 47.1602C128.38 48.0059 126.23 49.428 123.324 49.428C120.605 49.428 118.369 48.5758 117.35 46.6943L117.285 46.7758ZM55.822 37.7429C55.822 38.5116 55.384 39.0497 54.9063 39.0497C53.9111 39.0497 53.5926 39.3572 53.3139 40.2798C52.9954 41.3945 52.4779 43.3548 52.4779 44.6233C52.4779 45.738 53.0751 46.1224 54.0305 46.1224C54.7869 46.1224 55.5433 45.5458 56.1404 45.0845C56.2076 45.0341 56.2707 44.9849 56.3303 44.9384L56.3343 44.9352L56.3491 44.9237C56.3164 44.6687 56.2997 44.402 56.2997 44.1236C56.2997 40.3951 59.6039 37.051 64.8986 37.051C67.6057 37.051 69.0389 38.3195 69.0389 40.0491C69.0389 42.3939 66.6105 44.5079 62.8286 44.5079C62.8286 45.6227 64.2219 46.5067 66.1328 46.5067C67.6854 46.5067 68.8 45.6995 69.7953 44.8539C69.9003 44.7637 69.9952 44.6867 70.0827 44.623C70.1132 44.6008 70.1428 44.5802 70.1716 44.5612L70.1974 44.5446C70.2099 44.5366 70.2223 44.5291 70.2345 44.5217C70.6645 42.7418 71.1075 40.8485 71.1075 39.7801C71.1075 39.6373 71.0942 39.522 71.0734 39.4238C71.0575 39.3489 71.0372 39.2841 71.0153 39.2245C70.9957 39.1717 70.9749 39.123 70.9543 39.0754L70.9542 39.0748C70.8895 38.9243 70.8288 38.7831 70.8288 38.55C70.8288 37.7044 73.5359 37.1279 75.8448 37.1279C76.7207 37.1279 77.1984 37.4738 77.1984 38.1273C77.1984 38.55 77.1188 39.0497 77.1188 39.0497C77.1188 39.0497 78.6315 37.2816 80.6619 37.2816C81.7766 37.2816 82.6922 37.9351 82.6922 39.0882C82.6922 40.472 81.7368 42.0479 80.1046 42.0479C78.8704 42.0479 78.1937 41.0485 78.1937 40.3951C77.9548 40.472 77.4771 40.8179 76.9197 41.8173C76.1633 43.0858 75.0486 46.8143 75.0486 48.3134C75.0486 48.9668 74.77 49.1205 74.1729 49.1205C73.4742 49.1205 72.4621 49.1863 71.623 49.241H71.6218L71.6196 49.2411C71.0257 49.2798 70.5188 49.3127 70.2714 49.3127C69.7539 49.3127 69.4354 49.1205 69.4354 48.4671C69.4354 48.1222 69.5338 47.5557 69.6828 46.8657C68.3357 48.0737 66.3631 49.428 62.9878 49.428C60.0887 49.428 57.6675 48.4592 56.7237 46.3069C55.4843 47.6505 53.0504 49.3127 50.4476 49.3127C48.3383 49.3127 47.1128 48.4176 46.6127 47.1329C45.6979 48.1257 44.0967 49.3127 41.8648 49.3127C39.5956 49.3127 37.8042 48.0058 37.8042 46.353C37.8042 45.05 38.1976 43.9608 38.5471 42.9928L38.5473 42.9922C38.8267 42.2184 39.0781 41.5222 39.0781 40.8563C39.0781 40.3566 38.7994 40.0491 38.3615 40.0491C37.6848 40.0491 37.1274 40.5488 36.2516 42.2401C35.5748 43.547 34.5397 46.8143 34.5397 48.3134C34.5397 48.9668 34.2611 49.1205 33.6639 49.1205C32.965 49.1205 31.9387 49.1864 31.0879 49.241L31.0857 49.2411C30.4838 49.2798 29.9701 49.3127 29.7227 49.3127C29.2052 49.3127 28.8867 49.1205 28.8867 48.4671C28.8867 48.1222 28.9851 47.5557 29.1341 46.8657C27.787 48.0737 25.8144 49.428 22.4391 49.428C18.6969 49.428 15.751 47.8137 15.751 44.1236C15.751 40.3951 19.0552 37.051 24.35 37.051C27.057 37.051 28.4902 38.3195 28.4902 40.0491C28.4902 42.3939 26.0618 44.5079 22.2798 44.5079C22.2798 45.6227 23.6732 46.5067 25.584 46.5067C27.1367 46.5067 28.2513 45.6995 29.2466 44.8539C29.4153 44.709 29.5576 44.5983 29.6858 44.5217C30.1158 42.7418 30.5588 40.8485 30.5588 39.7801C30.5588 39.4315 30.4794 39.247 30.4055 39.0748C30.3408 38.9243 30.2801 38.7831 30.2801 38.55C30.2801 37.7044 32.9075 37.1279 35.2166 37.1279C36.0923 37.1279 36.5701 37.4738 36.5701 38.1273C36.5701 38.7422 36.3312 39.5879 36.3312 39.5879C37.0478 38.7422 39.2374 37.1279 41.5861 37.1279C43.7757 37.1279 44.8506 38.0888 44.8506 39.5494C44.8506 40.459 44.5557 41.46 44.2692 42.4323C43.9988 43.3502 43.7359 44.2423 43.7359 45.0076C43.7359 45.738 44.2136 46.1992 44.8107 46.1992C45.4875 46.1992 45.806 45.8917 46.3235 45.392L46.3516 45.3651C46.3931 44.1642 46.7165 43.0908 47.0212 42.0795C47.3096 41.1222 47.5813 40.2205 47.5813 39.3188C47.5813 39.0893 47.3544 39.0301 47.1091 38.9661C46.8205 38.8907 46.5064 38.8088 46.5064 38.4348C46.5064 38.0504 46.7452 37.3201 47.1832 37.3201C49.2931 37.3201 51.2836 35.5519 52.6769 33.7068C53.1149 33.1303 53.5528 32.8612 53.9111 32.8612C54.349 32.8612 54.5878 33.1303 54.5878 33.5531C54.5878 34.003 54.4301 34.6379 54.2825 35.2319L54.2823 35.2325C54.1525 35.7548 54.0305 36.2456 54.0305 36.5513C54.0305 37.051 54.2296 37.3201 55.2646 37.3201C55.5831 37.3201 55.822 37.4354 55.822 37.7429ZM22.0807 42.6629C22.0807 40.9332 23.2353 39.0497 24.3101 39.0497C24.748 39.0497 24.9869 39.2804 24.9869 39.7416C24.9869 40.5488 24.1111 42.2786 22.0807 42.6629ZM62.6295 42.6629C62.6295 40.9332 63.7839 39.0497 64.8588 39.0497C65.2968 39.0497 65.5356 39.2804 65.5356 39.7416C65.5356 40.5488 64.6598 42.2786 62.6295 42.6629ZM123.085 42.6629C123.085 40.9332 124.24 39.0497 125.314 39.0497C125.752 39.0497 125.991 39.2804 125.991 39.7416C125.991 40.5488 125.115 42.2786 123.085 42.6629ZM146.886 47.8347L146.896 47.7752C146.617 48.0443 145.264 49.3127 142.716 49.3127C140.009 49.3127 138.018 47.5061 138.018 44.8155C138.018 41.0485 140.606 37.1279 146.299 37.1279C147.66 37.1279 148.458 37.4321 149.024 37.6478C149.335 37.7663 149.576 37.8582 149.802 37.8582C150.19 37.8582 150.741 37.7009 151.331 37.5323C152.013 37.3376 152.748 37.1279 153.345 37.1279C153.743 37.1279 153.942 37.2816 153.942 37.7044C153.942 37.9323 153.873 38.1725 153.742 38.6285L153.742 38.629C153.475 39.5579 152.951 41.3813 152.23 45.8149L152.223 45.8576C151.268 51.7378 149.864 60.3829 142.477 60.3829C139.571 60.3829 136.864 58.5763 136.864 55.8856C136.864 52.8106 139.491 51.4653 140.646 51.4653C140.924 51.4653 141.084 51.5806 141.084 51.8112C141.084 51.966 141.025 52.0896 140.956 52.2372C140.853 52.4563 140.725 52.7283 140.725 53.2334C140.725 54.3481 141.601 54.9631 142.676 54.9631C145.676 54.9631 146.484 50.2009 146.886 47.8347ZM144.985 46.6221C146.378 46.6221 147.493 42.3554 147.493 39.9723C147.493 39.511 147.254 39.2419 146.776 39.2419C145.423 39.2419 144.029 42.6629 144.029 45.1998C144.029 46.007 144.388 46.6221 144.985 46.6221ZM171.129 47.1819C170.214 48.1643 168.66 49.3127 166.465 49.3127C163.32 49.3127 162.683 47.1986 162.683 47.1986C162.683 47.1986 160.851 49.3127 157.069 49.3127C155.079 49.3127 153.725 48.1596 153.725 46.353C153.725 45.0004 154.161 43.5117 154.538 42.2241C154.826 41.2429 155.079 40.3785 155.079 39.7801C155.079 39.4315 155 39.247 154.926 39.0748C154.861 38.9243 154.8 38.7831 154.8 38.55C154.8 37.7044 157.547 37.1279 159.856 37.1279C160.732 37.1279 161.21 37.4738 161.21 38.1273C161.21 38.9097 160.921 39.8126 160.6 40.8193C160.195 42.0874 159.737 43.5203 159.737 45.0845C159.737 45.6611 160.135 46.0455 160.692 46.0455C161.329 46.0455 161.648 45.5842 162.165 44.6617C163.041 43.1626 163.558 41.2023 163.558 39.7801C163.558 39.4315 163.479 39.247 163.405 39.0748C163.341 38.9243 163.28 38.7831 163.28 38.55C163.28 37.7044 166.027 37.1279 168.336 37.1279C169.212 37.1279 169.689 37.4738 169.689 38.1273C169.689 38.8027 169.406 39.7746 169.096 40.8426C168.717 42.1451 168.296 43.5905 168.296 44.8155C168.296 45.6227 168.813 46.1992 169.371 46.1992C170.048 46.1992 170.366 45.8917 170.884 45.392C170.907 45.3694 170.93 45.3478 170.952 45.3273C171.069 44.189 171.407 43.0691 171.706 42.0826L171.706 42.0821C171.982 41.1705 172.223 40.373 172.223 39.7801C172.223 39.6163 172.208 39.4888 172.185 39.3817C172.16 39.2609 172.125 39.1661 172.091 39.0748C172.036 38.9243 171.984 38.7831 171.984 38.55C171.984 37.7044 174.691 37.1279 177 37.1279C177.876 37.1279 178.354 37.4738 178.354 38.1273C178.354 38.7787 178.125 39.5889 177.861 40.5226C177.503 41.7927 177.08 43.2916 177.08 44.9308C177.08 45.6995 177.717 46.1992 178.274 46.1992C178.831 46.1992 179.19 45.8917 179.707 45.392L179.727 45.3724L179.752 45.3488C179.74 45.1882 179.734 45.0233 179.734 44.8539C179.734 40.5104 183.038 37.1279 187.497 37.1279C188.89 37.1279 190.045 37.5507 190.403 37.7813C191 35.5519 191.359 33.3609 191.359 31.3237C191.359 30.0552 190.881 29.4402 190.045 29.4402C189.647 29.4402 189.448 29.2865 189.448 28.979C189.448 28.1718 191.956 26.9033 194.225 26.9033C196.295 26.9033 197.609 27.9796 197.609 29.9015C197.609 31.4809 196.896 33.7485 196.129 36.1899C195.234 39.0366 194.265 42.1196 194.265 44.6233C194.265 45.6227 194.703 46.1992 195.419 46.1992C196.096 46.1992 196.415 45.8917 196.932 45.392C196.978 45.3475 197.021 45.3072 197.062 45.2709C196.993 44.9133 196.957 44.5311 196.957 44.1236C196.957 40.3951 200.261 37.051 205.556 37.051C208.263 37.051 209.696 38.3195 209.696 40.0491C209.696 42.3939 207.267 44.5079 203.485 44.5079C203.485 45.6227 204.879 46.5067 206.79 46.5067C208.342 46.5067 209.457 45.6995 210.452 44.8539C210.811 44.5464 211.049 44.3926 211.288 44.3926C211.607 44.3926 211.846 44.5848 211.846 44.8923C211.846 45.2767 211.607 45.5842 211.049 46.1992C209.696 47.5061 207.666 49.428 203.645 49.428C200.933 49.428 198.64 48.5804 197.582 46.7095L197.529 46.7758C196.693 47.8137 194.782 49.3127 192.274 49.3127C189.846 49.3127 189.169 47.3908 189.169 47.3908C189.169 47.3908 187.099 49.3127 184.233 49.3127C182.24 49.3127 180.797 48.4871 180.136 46.9765C179.25 47.9962 177.599 49.3127 175.248 49.3127C173.173 49.3127 171.67 48.4258 171.129 47.1819ZM175.885 35.0906C174.253 35.0906 173.258 34.1681 173.258 33.015C173.258 31.4775 174.492 29.863 176.403 29.863C177.836 29.863 179.03 30.7471 179.03 31.9003C179.03 33.8221 177.398 35.0906 175.885 35.0906ZM189.169 39.9723C189.169 42.3554 188.054 46.6221 186.661 46.6221C186.064 46.6221 185.706 46.007 185.706 45.1998C185.706 42.6629 187.099 39.2419 188.453 39.2419C188.93 39.2419 189.169 39.511 189.169 39.9723ZM205.516 39.0497C204.441 39.0497 203.286 40.9332 203.286 42.6629C205.317 42.2786 206.193 40.5488 206.193 39.7416C206.193 39.2804 205.954 39.0497 205.516 39.0497Z" fill="#FFF7EA"/>
</svg>
